<svg width="44" height="54" viewBox="0 0 44 54" xmlns="http://www.w3.org/2000/svg" xmlns:xlink="http://www.w3.org/1999/xlink"><title>Apple</title><desc>Created using Figma</desc><use xlink:href="#a" transform="translate(19.8)" fill="#FF8306"/><use xlink:href="#b" transform="translate(0 14.18)" fill="#FF8306"/><defs><path id="a" fill-rule="evenodd" d="M1.61 14.257l-.253-.003A1.293 1.293 0 0 1 .13 13.19c-.508-2.788.492-6.05 2.674-8.726C4.809 2.002 8.123.21 11.052.004a1.292 1.292 0 0 1 1.365 1.104c.433 2.936-.514 6.163-2.596 8.853-2.017 2.61-5.24 4.296-8.212 4.296zm8.33-11.44c-1.886.507-3.9 1.767-5.143 3.294-.559.685-2.186 2.9-2.224 5.469 1.91-.317 3.912-1.53 5.214-3.214.67-.866 2.064-2.965 2.153-5.548z"/><path id="b" fill-rule="evenodd" d="M43.01 24.282c.334.126.6.385.737.716.136.33.13.703-.015 1.03-1.138 2.556-1.71 3.74-3.213 6.058-2.445 3.742-5.482 7.568-9.492 7.602l-.078.001c-1.7 0-2.824-.52-3.91-1.022-1.136-.524-2.208-1.02-4.175-1.02h-.066c-2.005.01-3.111.509-4.283 1.036-1.11.499-2.256 1.014-3.96 1.014h-.084c-4.092-.035-7.017-3.673-9.337-7.226C1.04 26.192-.766 18.681.3 12.377c.379-2.216 1.071-4.12 2.058-5.661C5.03 2.572 9.31 0 13.534 0c2.192 0 3.946.633 5.492 1.19 1.325.478 2.467.89 3.721.89 1.133 0 2.121-.377 3.266-.814C27.566.673 29.327 0 31.929 0c3.716 0 7.54 2.019 10.23 5.4a1.303 1.303 0 0 1-.384 1.949c-2.024 1.123-3.487 2.82-4.231 4.91-1.504 4.214.158 10.007 5.467 12.023zm-12.006 12.81c2.815-.024 5.411-3.448 7.358-6.429 1.16-1.788 1.71-2.821 2.486-4.515-5.216-2.716-7.77-9.052-5.73-14.766a11.468 11.468 0 0 1 4.067-5.445c-2.091-2.112-4.723-3.34-7.256-3.34-2.13 0-3.59.557-5.002 1.096-1.266.484-2.575.984-4.18.984-1.701 0-3.17-.53-4.59-1.042-1.48-.534-2.879-1.039-4.623-1.039-3.36 0-6.812 2.12-9.01 5.53-.796 1.244-1.363 2.822-1.682 4.69-.96 5.67.703 12.487 4.446 18.23 1.833 2.806 4.309 6.03 7.207 6.056h.06c1.154 0 1.928-.349 2.908-.79 1.236-.556 2.774-1.247 5.321-1.26h.08c2.53 0 4.037.696 5.25 1.256.948.438 1.698.785 2.835.785h.055z"/></defs></svg>