<svg width="1284" height="793" viewBox="0 0 1284 793" xmlns="http://www.w3.org/2000/svg" xmlns:xlink="http://www.w3.org/1999/xlink"><title>Group</title><desc>Created using Figma</desc><use xlink:href="#a" transform="translate(2.2 .84)" fill="#EBEFF1"/><g transform="translate(14952 4838)"><use xlink:href="#b" transform="translate(-14159 -4243)" fill="#0BAFF0"/><mask id="c"><path fill="#fff" transform="translate(-14159 -4243)" d="M-3-3h26v26H-3z"/><use xlink:href="#b" transform="translate(-14159 -4243)"/></mask><g mask="url(#c)"><use xlink:href="#d" transform="translate(-14159 -4243)" fill="#FFF"/></g></g><use xlink:href="#e" transform="translate(799 598)" fill="#FFF"/><g transform="translate(14952 4838)"><use xlink:href="#b" transform="translate(-14000 -4562)" fill="#0BAFF0"/><mask id="f"><path fill="#fff" transform="translate(-14000 -4562)" d="M-3-3h26v26H-3z"/><use xlink:href="#b" transform="translate(-14000 -4562)"/></mask><g mask="url(#f)"><use xlink:href="#d" transform="translate(-14000 -4562)" fill="#FFF"/></g></g><g transform="translate(14952 4838)"><use xlink:href="#b" transform="translate(-14481 -4243)" fill="#0BAFF0"/><mask id="g"><path fill="#fff" transform="translate(-14481 -4243)" d="M-3-3h26v26H-3z"/><use xlink:href="#b" transform="translate(-14481 -4243)"/></mask><g mask="url(#g)"><use xlink:href="#d" transform="translate(-14481 -4243)" fill="#FFF"/></g></g><use xlink:href="#h" transform="translate(477 598)" fill="#FFF"/><use xlink:href="#i" transform="translate(959 279)" fill="#FFF"/><g transform="translate(14952 4838)"><use xlink:href="#b" transform="translate(-14320 -4562)" fill="#0BAFF0"/><mask id="j"><path fill="#fff" transform="translate(-14320 -4562)" d="M-3-3h26v26H-3z"/><use xlink:href="#b" transform="translate(-14320 -4562)"/></mask><g mask="url(#j)"><use xlink:href="#d" transform="translate(-14320 -4562)" fill="#FFF"/></g></g><use xlink:href="#k" transform="translate(639 279)" fill="#FFF"/><g transform="translate(14952 4838)"><use xlink:href="#b" transform="translate(-14640 -4562)" fill="#0BAFF0"/><mask id="l"><path fill="#fff" transform="translate(-14640 -4562)" d="M-3-3h26v26H-3z"/><use xlink:href="#b" transform="translate(-14640 -4562)"/></mask><g mask="url(#l)"><use xlink:href="#d" transform="translate(-14640 -4562)" fill="#FFF"/></g></g><use xlink:href="#m" transform="translate(319 279)" fill="#FFF"/><defs><path id="a" d="M1222.12 284.832l-.01 1.5.01-1.5zM.223 0h-1.5v1.96h3V0h-1.5zm-1.5 5.873v4h3v-4h-3zm0 7.97v3.968h3v-3.969h-3zm0 7.967v4.017h3V21.81h-3zm0 7.942v3.999h3v-3.999h-3zm0 7.976v3.964h3v-3.964h-3zm0 7.973v3.945h3v-3.945h-3zm0 7.96v3.942h3v-3.941h-3zm0 7.953v3.946h3v-3.946h-3zm0 7.947v3.956h3v-3.956h-3zm0 7.947v3.967h3v-3.967h-3zm0 7.949v3.977h3v-3.977h-3zm0 7.952v3.982h3V93.41h-3zm0 7.955v3.982h3v-3.982h-3zm0 7.956v3.977h3v-3.977h-3zm0 7.957v3.974h3v-3.974h-3zm0 7.955v3.976h3v-3.976h-3zm0 7.952v3.981h3v-3.981h-3zm0 7.948v3.991h3v-3.991h-3zm0 7.945v4.003h3v-4.003h-3zm0 7.954v4.006h3v-4.006h-3zm0 7.954v4.009h3v-4.009h-3zm0 7.95v4.016h3v-4.016h-3zm0 7.948v4.024h3v-4.024h-3zm0 7.979v3.986h3v-3.986h-3zm0 7.983v3.93h3v-3.93h-3zm0 7.933v4.005h3v-4.005h-3zm0 5.915c0 .677.005 1.355.013 2.024l3-.039c-.008-.659-.013-1.317-.013-1.985h-3zm.12 6.037c.053 1.352.127 2.697.218 4.012l2.992-.208c-.09-1.292-.16-2.593-.213-3.924l-2.998.12zm.558 8.019c.137 1.349.296 2.691.473 3.998l2.973-.404a114.256 114.256 0 0 1-.46-3.896l-2.986.302zm1.089 7.982c.233 1.34.492 2.671.77 3.963l2.933-.633a96.175 96.175 0 0 1-.748-3.844l-2.955.514zm1.709 7.895a85.149 85.149 0 0 0 1.118 3.891l2.863-.899a80.656 80.656 0 0 1-1.08-3.753l-2.901.761zm2.431 7.726a72.556 72.556 0 0 0 1.521 3.763l2.748-1.203a68.693 68.693 0 0 1-1.457-3.606l-2.812 1.046zm3.261 7.434a62.966 62.966 0 0 0 1.974 3.562l2.574-1.54a58.578 58.578 0 0 1-1.878-3.39l-2.67 1.368zm4.19 6.991a55.938 55.938 0 0 0 2.458 3.264l2.327-1.893a51.872 51.872 0 0 1-2.324-3.087l-2.461 1.716zm5.156 6.334a52.441 52.441 0 0 0 2.934 2.855l2.005-2.231a48.018 48.018 0 0 1-2.763-2.69l-2.176 2.066zm6.084 5.469a52.444 52.444 0 0 0 3.349 2.355l1.627-2.52a47.718 47.718 0 0 1-3.154-2.219l-1.822 2.384zm6.869 4.44c1.18.639 2.417 1.25 3.66 1.808l1.23-2.736a51.425 51.425 0 0 1-3.461-1.71l-1.429 2.638zm7.44 3.346c1.255.46 2.561.89 3.873 1.275l.844-2.879a57.5 57.5 0 0 1-3.684-1.212l-1.033 2.816zm7.814 2.298a71.64 71.64 0 0 0 3.98.784l.496-2.958a68.343 68.343 0 0 1-3.811-.751l-.665 2.925zm7.991 1.349c1.315.15 2.67.271 4.03.361l.197-2.994a80.811 80.811 0 0 1-3.886-.348l-.341 2.981zm8.068.534c.67.014 1.353.021 2.033.021v-3c-.664 0-1.316-.007-1.97-.02l-.063 2.999zm2.033.021h1.383v-3h-1.383v3zm5.674-.001l3.792-.001-.001-3-3.792.001v3zm7.63-.003l4.396-.001v-3l-4.396.001v3zm8.352-.003l3.713-.001-.001-3-3.714.001.002 3zm7.685-.003l4.227-.002-.002-3-4.226.002v3zm8.55-.003l3.671-.002-.001-3-3.671.002.001 3zm7.492-.004l3.967-.001-.001-3-3.968.001.002 3zm8.079-.003l4.255-.002-.002-3-4.254.002.001 3zm8.334-.004l3.76-.001-.001-3-3.76.001.001 3zm7.616-.003l3.95-.002-.002-3-3.949.002.001 3zm7.992-.003l4.134-.002-.001-3-4.134.002.001 3zm8.359-.004l3.997-.002-.002-3-3.996.002.001 3zm7.805-.004l3.874-.001-.002-3-3.873.001.001 3zm7.812-.003l4.003-.002-.002-3-4.002.002.001 3zm8.069-.004l4.128-.001-.001-3-4.129.001.002 3zm8.318-.003l3.965-.002-.002-3-3.964.002.001 3zm7.806-.004l3.889-.001-.001-3-3.889.001.001 3zm7.825-.003l3.983-.002-.002-3-3.982.002.001 3zm8.011-.004l4.073-.001-.001-3-4.074.001.002 3zm8.191-.003l4.163-.002-.002-3-4.162.002.001 3zm8.092-.004l3.87-.002-.001-3-3.871.002.002 3zm7.776-.003l3.94-.002-.001-3-3.941.002.002 3zm7.916-.004l4.009-.001-.001-3-4.01.001.002 3zm8.052-.003l4.077-.002-.001-3-4.077.002.001 3zm8.186-.004l4.141-.002-.001-3-4.141.002.001 3zm8.011-.003l3.898-.002-.002-3-3.897.002.001 3zm7.822-.004l3.951-.001-.001-3-3.951.001.001 3zm7.928-.003l4.003-.002-.001-3-4.003.002.001 3zm8.032-.004l4.054-.001-.001-3-4.054.001.001 3zm8.133-.003l4.104-.002-.001-3-4.104.002.001 3zm8.108-.004l3.903-.001-.002-3-3.903.001.002 3zm7.827-.003l3.944-.002-.001-3-3.945.002.002 3zm7.909-.003l3.985-.002-.001-3-3.985.002.001 3zm7.99-.004l4.024-.002-.001-3-4.025.002.002 3zm8.068-.003l4.062-.002-.001-3-4.063.002.002 3zm8.144-.004l4.033-.001-.002-3-4.033.001.002 3zm7.95-.003l3.933-.002-.001-3-3.933.002.001 3zm7.883-.003l3.965-.002-.001-3-3.966.002.002 3zm7.946-.004l3.996-.002-.002-3-3.996.002.002 3zm8.007-.003l4.025-.002-.001-3-4.026.002.002 3zm8.066-.004l4.054-.001-.001-3-4.055.001.002 3zm8.123-.003l3.988-.002-.001-3-3.988.002.001 3zm7.924-.003l3.949-.002-.001-3-3.949.002.001 3zm7.911-.004l3.973-.001-.002-3-3.973.001.002 3zm7.957-.003l3.997-.002-.002-3-3.996.002.001 3zm8.004-.003l4.019-.002-.001-3-4.019.002.001 3zm8.049-.003l4.04-.002-.001-3-4.041.002.002 3zm8.091-.004l4.014-.001-.002-3-4.013.001.001 3zm7.962-.003l3.958-.002-.001-3-3.958.002.001 3zm7.925-.003l3.976-.002-.001-3-3.976.002.001 3zm7.96-.003l3.993-.002-.001-3-3.993.002.001 3zm7.994-.004l4.01-.001-.001-3-4.01.001.001 3zm8.027-.003l4.025-.001-.001-3-4.025.001.001 3zm8.058-.003l4.04-.002-.002-3-4.04.002.002 3zm8.016-.003l3.965-.002-.001-3-3.965.002.001 3zm7.936-.003l3.978-.002-.001-3-3.978.002.001 3zm7.962-.004l3.99-.001-.001-3-3.99.001.001 3zm7.985-.003l4.001-.001-.001-3-4.001.001.001 3zm8.008-.003l4.012-.001-.001-3-4.012.001.001 3zm8.029-.003l4.021-.001-.001-3-4.022.001.002 3zm8.048-.003l3.977-.001-.001-3-3.978.001.002 3zm7.955-.003l3.982-.002-.002-3-3.981.002.001 3zm7.967-.003l3.989-.002-.001-3-3.989.002.001 3zm7.982-.003l3.996-.002-.001-3-3.996.002.001 3zm7.995-.003l4.002-.002-.001-3-4.002.002.001 3zm8.007-.003l4.008-.002-.001-3-4.008.002.001 3zm8.018-.003l4.012-.002-.001-3-4.012.002.001 3zm8.003-.003l3.989-.002-.001-2.999-3.989.001.001 3zm7.98-.003l3.992-.001-.001-3-3.992.001.001 3zm7.986-.003l3.995-.001-.001-3-3.995.001.001 3zm7.991-.003l3.997-.001-.001-3-3.997.001.001 3zm7.995-.003l3.998-.001-.001-3-3.998.001.001 3zm7.997-.003l3.999-.001-.001-3-3.999.001.001 3zm7.998-.002l4-.002-.001-3-4 .002.001 3zm8.001-.003l4-.002-.001-3-4 .002.001 3zm8-.003l3.999-.001-.002-3-3.998.001.001 3zm7.996-.003l3.997-.001-.001-3-3.997.001.001 3zm7.993-.002l3.994-.002-.001-3-3.994.002.001 3zm7.986-.003l3.991-.002-.001-3-3.991.002.001 3zm7.979-.003l3.987-.001-.001-3-3.987.001.001 3zm7.989-.003l4.013-.001-.001-3-4.013.001.001 3zm8.023-.002l4.008-.002-.001-3-4.008.002.001 3zm8.012-.003l4.002-.001-.001-3-4.002.001.001 3zm8-.002l3.994-.002-.001-3-3.994.002.001 3zm7.985-.003l3.986-.001-.001-3-3.986.001.001 3zm7.969-.003l3.978-.001-.001-3-3.978.001.001 3zm7.953-.002l4.002-.001-.001-3-4.002.001.001 3zm8.028-.003l4.02-.001-.001-3-4.02.001.001 3zm8.036-.002l4.01-.001-.001-3-4.01.001.001 3zm8.014-.002l3.999-.002-.001-3-3.998.002v3zm7.992-.003l3.986-.001-.001-3-3.986.001.001 3zm7.966-.002l3.974-.001-.001-3-3.974.001.001 3zm7.941-.003l3.96-.001-.001-3-3.96.001.001 3zm7.977-.002l4.038-.001-.001-3-4.038.001.001 3zm8.068-.002l4.022-.001v-3l-4.023.001.001 3zm8.036-.002l4.006-.001-.001-3-4.005.001v3zm8.003-.003l3.988-.001v-3l-3.989.001.001 3zm7.968-.002l3.97-.001-.001-3-3.97.001.001 3zm7.931-.002l3.951-.001-.001-3-3.951.001.001 3zm7.911-.002l4.058-.001-.001-3-4.058.001.001 3zm8.105-.002l4.035-.001v-3l-4.036.001.001 3zm8.06-.002l4.013-.001v-3l-4.014.001.001 3zm8.015-.002l3.989-.001v-3l-3.99.001.001 3zm7.967-.002l3.965-.001v-3l-3.966.001.001 3zm7.918-.002l3.94-.001-.001-3-3.94.001.001 3zm7.867-.001l4.075-.001v-3l-4.075.001v3zm8.138-.002l4.047-.001v-3l-4.048.001.001 3zm8.08-.002l4.017-.001v-3l-4.018.001.001 3zm8.019-.002h3.986v-3h-3.987l.001 3zm7.956-.001l3.954-.001v-3l-3.954.001v3zm7.892-.002h3.921l-.001-3h-3.92v3zm7.89-.001l4.09-.001v-3l-4.09.001v3zm8.161-.002h4.052l-.001-3h-4.051v3zm8.083-.001l4.011-.001v-3l-4.011.001v3zm8.002-.001l3.971-.001-.001-3-3.97.001v3zm7.92-.001l3.928-.001-.001-3-3.928.001.001 3zm7.834-.001l3.943-.001-.001-3-3.942.001v3zm8.056-.001l4.085-.001v-3l-4.086.001.001 3zm8.145-.001l4.04-.001v-3l-4.04.001v3zm8.05-.001l3.98-.001v-3l-3.98.001v3zm7.94-.001h3.93l-.01-3h-3.92v3zm7.83-.001h3.87v-3h-3.87v3zm7.96 0h4.12v-3h-4.12v3zm8.21-.001h4.04v-3h-4.05l.01 3zm8.06 0h3.98v-3h-3.98v3zm7.92 0h3.91v-3h-3.91v3zm7.78 0h3.9v-3h-3.9v3zm8.07 0h4.12v-3h-4.12v3zm8.2 0l4.03.001v-3l-4.03-.001v3zm8.01.001h3.94v-3h-3.94v3zm7.82 0l3.84.001v-3l-3.84-.001v3zm7.82.001l4.19.001v-3l-4.19-.001v3zm8.32.001l4.06.001v-3l-4.06-.001v3zm8.06.002l3.93.001v-3l-3.93-.001v3zm7.79.002h3.79v-3h-3.79v3zm7.87.002l4.22.001v-3l-4.21-.001-.01 3zm8.34.002l4.02.001v-3l-4.02-.001v3zm7.94.003l3.82.001v-3l-3.82-.001v3zm7.55.003l4.28.002v-3l-4.28-.002v3zm8.49.004l4.06.003v-3l-4.06-.003v3zm7.96.005l3.75.003v-3l-3.75-.003v3zm7.65.006l4.37.004.01-3-4.37-.004-.01 3zm8.47.008l3.81.004.01-3-3.82-.004v3zm7.34.009l4.61.007.01-3-4.61-.007-.01 3zm8.61.015l3.42.008.01-3-3.43-.008v3zm8.03.025c.55.003.99.007 1.33.01l.02-3c-.33-.003-.78-.007-1.34-.01l-.01 3zm1.33.01c.66.006 1.31.023 1.96.051l.13-2.997a64.23 64.23 0 0 0-2.07-.054l-.02 3zm5.87.345c1.32.143 2.6.326 3.89.554l.52-2.954a61.047 61.047 0 0 0-4.08-.583l-.33 2.983zm7.72 1.371c1.29.32 2.52.675 3.77 1.079l.92-2.853a59.79 59.79 0 0 0-3.96-1.137l-.73 2.911zm7.45 2.42c1.22.495 2.4 1.02 3.58 1.596l1.31-2.694a58.276 58.276 0 0 0-3.76-1.683l-1.13 2.781zm7.03 3.443c1.14.662 2.23 1.349 3.31 2.088l1.69-2.479a60.187 60.187 0 0 0-3.49-2.202l-1.51 2.593zm6.47 4.407a54.96 54.96 0 0 1 2.98 2.538l2.03-2.214a59.807 59.807 0 0 0-3.15-2.676l-1.86 2.352zm5.78 5.282c.9.952 1.75 1.918 2.59 2.934l2.32-1.907a58.777 58.777 0 0 0-2.74-3.092l-2.17 2.065zm4.98 6.045a56.961 56.961 0 0 1 2.16 3.268l2.56-1.568a62.47 62.47 0 0 0-2.28-3.441l-2.44 1.741zm4.09 6.68a54.715 54.715 0 0 1 1.7 3.535l2.74-1.206a60.158 60.158 0 0 0-1.78-3.718l-2.66 1.389zm3.15 7.178c.45 1.231.85 2.461 1.21 3.735l2.89-.831a63.543 63.543 0 0 0-1.28-3.924l-2.82 1.02zm2.18 7.538c.28 1.278.52 2.55.72 3.862l2.96-.456a66.484 66.484 0 0 0-.75-4.049l-2.93.643zm1.19 7.766c.12 1.301.2 2.593.24 3.922l3-.09a69.076 69.076 0 0 0-.25-4.103l-2.99.271zm.27 5.784c-.01.104 0 .91 0 2.089l3-.002v-1.921c0-.057 0-.004-.01.054l-2.99-.22zm0 6.06v3.971l3-.001v-3.972l-3 .002zm0 7.94v3.97l3 .002v-3.971l-3-.001zm0 7.94c0 1.293-.01 2.618-.01 3.969l3 .005c0-1.351.01-2.678.01-3.971l-3-.003zm-.01 5.956c0 .675-.01 1.339-.02 2.005l3 .052c.01-.678.02-1.365.02-2.051l-3-.006zm-.15 5.98c-.07 1.347-.16 2.66-.26 3.966l2.99.25c.11-1.332.2-2.697.26-4.068l-2.99-.148zm-.67 7.916a94.006 94.006 0 0 1-.55 3.927l2.96.479c.21-1.321.41-2.68.57-4.046l-2.98-.36zm-1.27 7.823a86.685 86.685 0 0 1-.88 3.854l2.9.742c.33-1.299.64-2.64.92-3.99l-2.94-.606zm-1.95 7.654c-.4 1.28-.82 2.511-1.27 3.732l2.81 1.04c.47-1.259.91-2.567 1.32-3.885l-2.86-.887zm-2.74 7.385a62.596 62.596 0 0 1-1.69 3.555l2.67 1.372a68.685 68.685 0 0 0 1.77-3.724l-2.75-1.203zm-3.6 6.986a52.18 52.18 0 0 1-2.13 3.284l2.45 1.723a57.7 57.7 0 0 0 2.25-3.461l-2.57-1.546zm-4.5 6.405a46.008 46.008 0 0 1-2.59 2.932l2.18 2.07c.94-.988 1.86-2.037 2.74-3.104l-2.33-1.898zm-5.39 5.654c-.98.878-1.96 1.697-3.01 2.496l1.83 2.381a52.903 52.903 0 0 0 3.18-2.644l-2-2.233zm-6.2 4.749c-1.1.713-2.2 1.371-3.36 2.004l1.44 2.633a53.647 53.647 0 0 0 3.55-2.121l-1.63-2.516zm-6.86 3.755c-1.19.54-2.38 1.032-3.62 1.496l1.05 2.811a59.658 59.658 0 0 0 3.81-1.576l-1.24-2.731zm-7.34 2.746c-1.25.374-2.51.708-3.81 1.011l.68 2.922c1.35-.315 2.69-.672 3.99-1.06l-.86-2.873zm-7.67 1.795c-1.29.222-2.57.409-3.9.567l.35 2.979a76.35 76.35 0 0 0 4.06-.59l-.51-2.956zm-7.83.932c-1.31.089-2.61.147-3.95.177l.06 2.999a89.08 89.08 0 0 0 4.09-.183l-.2-2.993zm-5.95.198h-2v3h2v-3zm-6.01 0h-4v3h4v-3zm-8.01 0h-4v3h4v-3zm-8.01 0h-4.01v3h4.01v-3zm-8.01 0h-4.01v3h4.01v-3zm-8.02 0h-4v3h4v-3zm-8.01 0h-4.01v3h4.01v-3zm-8.01 0h-4.01v3h4.01v-3zm-8.01 0h-4.01v3h4.01v-3zm-8.02 0h-4v3h4v-3zm-8.01 0h-4.01v3h4.01v-3zm-8.01 0h-4.01v3h4.01v-3zm-8.02 0h-4v3h4v-3zm-8.01 0h-4v3h4v-3zm-8.01 0h-4.01v3h4.01v-3zm-8.01 0h-4.01v3h4.01v-3zm-8.02 0h-4v3h4v-3zm-8.01 0h-4.01v3h4.01v-3zm-8.01 0h-4.01v3h4.01v-3zm-8.01 0h-4.01v3h4.01v-3zm-8.02 0h-4v3h4v-3zm-8.01 0h-4.01v3h4.01v-3zm-8.01 0h-4.01v3h4.01v-3zm-8.02 0h-4v3h4v-3zm-8.01 0h-4v3h4v-3zm-8.01 0h-4.01v3h4.01v-3zm-8.01 0h-4.01v3h4.01v-3zm-8.02 0h-4.003v3h4.003v-3zm-8.009 0h-4.007v3h4.007v-3zm-8.013 0h-4.006v3h4.006v-3zm-8.013 0h-4.006v3h4.006v-3zm-8.013 0h-4.006v3h4.006v-3zm-8.012 0h-4.007v3h4.007v-3zm-8.013 0h-4.006v3h4.006v-3zm-8.013 0h-4.006v3h4.006v-3zm-8.013 0h-4.006v3h4.006v-3zm-8.012 0h-4.007v3h4.007v-3zm-8.013 0h-4.006v3h4.006v-3zm-8.013 0h-4.006v3h4.006v-3zm-8.012 0h-4.007v3h4.007v-3zm-8.013 0h-4.007v3h4.007v-3zm-8.013 0h-4.006v3h4.006v-3zm-8.013 0h-4.006v3h4.006v-3zm-8.012 0h-4.007v3h4.007v-3zm-8.013 0H861.6v3h4.007v-3zm-8.013 0h-4.006v3h4.006v-3zm-8.013 0h-4.006v3h4.006v-3zm-8.012 0h-4.007v3h4.007v-3zm-8.013 0h-4.007v3h4.007v-3zm-8.013 0h-4.006v3h4.006v-3zm-8.013 0h-4.006v3h4.006v-3zm-8.012 0h-4.007v3h4.007v-3zm-8.013 0h-4.006v3h4.006v-3zm-8.013 0h-4.006v3h4.006v-3zm-8.013 0h-4.006v3h4.006v-3zm-8.012 0h-4.007v3h4.007v-3zm-8.013 0h-4.006v3h4.006v-3zm-8.013 0h-4.006v3h4.006v-3zm-8.012 0h-4.007v3h4.007v-3zm-8.013 0h-4.007v3h4.007v-3zm-8.013 0h-4.006v3h4.006v-3zm-8.013 0h-4.006v3h4.006v-3zm-8.012 0h-4.007v3h4.007v-3zm-8.013 0h-4.007v3h4.007v-3zm-8.013 0h-4.006v3h4.006v-3zm-8.013 0h-4.006v3h4.006v-3zm-8.012 0h-4.007v3h4.007v-3zm-8.013 0h-4.007v3h4.007v-3zm-8.013 0h-4.006v3h4.006v-3zm-8.013 0h-4.006v3h4.006v-3zm-8.012 0h-4.007v3h4.007v-3zm-8.013 0h-4.006v3h4.006v-3zm-8.013 0h-4.006v3h4.006v-3zm-8.013 0h-4.006v3h4.006v-3zm-8.012 0h-4.007v3h4.007v-3zm-8.013 0h-4.006v3h4.006v-3zm-8.013 0h-4.006v3h4.006v-3zm-8.013 0h-4.006v3h4.006v-3zm-8.012 0h-4.007v3h4.007v-3zm-8.013 0h-4.006v3h4.006v-3zm-8.013 0h-4.006v3h4.006v-3zm-8.013 0h-4.006v3h4.006v-3zm-8.012 0h-4.007v3h4.007v-3zm-8.013 0h-4.006v3h4.006v-3zm-8.013 0h-4.006v3h4.006v-3zm-8.012 0h-4.007v3h4.007v-3zm-8.013 0h-4.007v3h4.007v-3zm-8.013 0h-4.006v3h4.006v-3zm-8.013 0h-4.006v3h4.006v-3zm-8.012 0h-4.007v3h4.007v-3zm-8.013 0h-4.007v3h4.007v-3zm-8.013 0h-4.006v3h4.006v-3zm-8.013 0h-4.006v3h4.006v-3zm-8.012 0h-4.007v3h4.007v-3zm-8.013 0h-4.006v3h4.006v-3zm-8.013 0h-4.006v3h4.006v-3zm-8.013 0h-4.006v3h4.006v-3zm-8.012 0h-4.007v3h4.007v-3zm-8.013 0h-4.006v3h4.006v-3zm-8.013 0H420.9v3h4.006v-3zm-8.013 0h-4.006v3h4.006v-3zm-8.012 0h-4.007v3h4.007v-3zm-8.013 0h-4.006v3h4.006v-3zm-8.013 0h-4.006v3h4.006v-3zm-8.013 0h-4.006v3h4.006v-3zm-8.012 0h-4.007v3h4.007v-3zm-8.013 0h-4.006v3h4.006v-3zm-8.013 0h-4.006v3h4.006v-3zm-8.012 0h-4.007v3h4.007v-3zm-8.013 0h-4.007v3h4.007v-3zm-8.013 0h-4.006v3h4.006v-3zm-8.013 0h-4.006v3h4.006v-3zm-8.012 0h-4.007v3h4.007v-3zm-8.013 0h-4.007v3h4.007v-3zm-8.013 0h-4.006v3h4.006v-3zm-8.013 0h-4.006v3h4.006v-3zm-8.012 0h-4.007v3h4.007v-3zm-8.013 0h-4.006v3h4.006v-3zm-8.013 0h-4.006v3h4.006v-3zm-8.013 0h-4.006v3h4.006v-3zm-8.012 0h-4.007v3h4.007v-3zm-8.013 0h-4.006v3h4.006v-3zm-8.013 0h-4.006v3h4.006v-3zm-8.013 0h-4.006v3h4.006v-3zm-8.012 0h-4.007v3h4.007v-3zm-8.013 0h-4.006v3h4.006v-3zm-8.013 0h-4.006v3h4.006v-3zm-8.012 0h-4.007v3h4.007v-3zm-8.013 0h-4.007v3h4.007v-3zm-8.013 0h-4.006v3h4.006v-3zm-8.013 0h-4.006v3h4.006v-3zm-8.012 0h-4.007v3h4.007v-3zm-8.013 0h-4.007v3h4.007v-3zm-8.013 0h-4.006v3h4.006v-3zm-8.013 0h-4.006v3h4.006v-3zm-8.012 0h-4.007v3h4.007v-3zm-8.013 0h-4.007v3h4.007v-3zm-8.013 0h-4.006v3h4.006v-3zm-8.013 0h-4.006v3h4.006v-3zm-8.012 0h-4.007v3h4.007v-3zm-8.013 0h-4.007v3h4.007v-3zm-8.013 0h-4.006v3h4.006v-3zm-8.013 0h-4.006v3h4.006v-3zm-8.012 0h-4.007v3h4.007v-3zm-8.013 0H62.33v3h2.003v-3zm-2.003 0c-.686 0-1.375.009-2.05.025l.074 2.999a80.573 80.573 0 0 1 1.976-.024v-3zm-6.108.227a75.538 75.538 0 0 0-4.047.416l.388 2.974a71.644 71.644 0 0 1 3.885-.398l-.226-2.992zm-8.069 1.057c-1.35.256-2.69.552-3.98.878l.735 2.909a63.233 63.233 0 0 1 3.803-.839l-.558-2.948zm-7.9 2.002a63.074 63.074 0 0 0-3.848 1.378l1.105 2.79c1.196-.474 2.4-.907 3.66-1.312l-.918-2.856zm-7.601 3.015a59.523 59.523 0 0 0-3.63 1.891l1.478 2.611a55.382 55.382 0 0 1 3.444-1.795l-1.292-2.707zm-7.117 4.031a58.504 58.504 0 0 0-3.329 2.384l1.833 2.375a54.11 54.11 0 0 1 3.155-2.259l-1.66-2.5zm-6.482 5a58.746 58.746 0 0 0-2.956 2.828l2.148 2.094a54.284 54.284 0 0 1 2.804-2.683l-1.996-2.239zm-5.709 5.856a60.502 60.502 0 0 0-2.538 3.209l2.415 1.78a56.295 56.295 0 0 1 2.411-3.049l-2.288-1.94zm-4.85 6.577a63.114 63.114 0 0 0-2.088 3.517l2.629 1.446a58.365 58.365 0 0 1 1.987-3.348l-2.529-1.615zm-3.94 7.156a64.655 64.655 0 0 0-1.615 3.753l2.792 1.098a59.915 59.915 0 0 1 1.54-3.577l-2.716-1.274zm-2.987 7.599a64.315 64.315 0 0 0-1.124 3.929l2.91.732a59.726 59.726 0 0 1 1.07-3.744l-2.856-.917zm-1.99 7.921a60.29 60.29 0 0 0-.597 4.052l2.982.334c.143-1.278.33-2.545.567-3.847l-2.951-.539zm-.906 8.135a53.54 53.54 0 0 0-.04 2.049h3c0-.643.012-1.277.037-1.932l-2.997-.117zm-.04 2.049v2.025l3 .001v-2.026h-3zm-.004 6.052c-.002 1.603-.005 2.919-.008 4.023l3 .009c.003-1.105.006-2.424.008-4.028l-3-.004zm-.03 8.051c-.014 1.533-.03 2.47-.045 4.018l3 .029c.014-1.537.03-2.476.044-4.02l-3-.027zm-.072 8.061c-.005 1.108-.01 2.43-.013 4.038l3 .006c.004-1.606.008-2.925.013-4.031l-3-.013zm-.02 8.058l-.003 4.032 3 .002c0-1.473.002-2.811.003-4.031l-3-.003zm-.005 8.047v2.048h3v-2.048h-3zm0 2.048c0 .687.01 1.382.03 2.062l3-.09c-.02-.658-.03-1.307-.03-1.972h-3zm.277 6.165c.124 1.371.293 2.75.499 4.089l2.965-.456a62.555 62.555 0 0 1-.476-3.904l-2.988.271zM.03 557.71a64.374 64.374 0 0 0 1.012 3.992l2.883-.832a59.86 59.86 0 0 1-.965-3.803l-2.93.643zm2.284 7.915a62.319 62.319 0 0 0 1.53 3.829l2.747-1.205a58.205 58.205 0 0 1-1.455-3.643l-2.822 1.019zm3.313 7.547a60.839 60.839 0 0 0 2.035 3.591l2.558-1.568a56.348 56.348 0 0 1-1.933-3.411l-2.66 1.388zm4.311 7.032a59.603 59.603 0 0 0 2.512 3.277l2.316-1.907a55.425 55.425 0 0 1-2.384-3.111l-2.444 1.741zm5.247 6.37c.943.992 1.939 1.97 2.948 2.892l2.024-2.214a54.723 54.723 0 0 1-2.796-2.744l-2.176 2.066zm6.093 5.569a58.348 58.348 0 0 0 3.328 2.445l1.69-2.479a54.45 54.45 0 0 1-3.156-2.319l-1.862 2.353zm6.822 4.647c1.18.686 2.41 1.345 3.643 1.948l1.32-2.694a54.144 54.144 0 0 1-3.455-1.847L28.1 596.79zm7.413 3.631c1.262.511 2.573.989 3.88 1.413l.927-2.853a54.545 54.545 0 0 1-3.682-1.341l-1.125 2.781zm7.847 2.55a61.13 61.13 0 0 0 4.035.86l.525-2.954a55.892 55.892 0 0 1-3.834-.817l-.726 2.911zm8.122 1.443c1.346.146 2.731.25 4.107.309l.126-2.998a58.935 58.935 0 0 1-3.909-.293l-.324 2.982zm6.171.362c.338.004.787.007 1.343.01l.017-3c-.554-.003-.997-.006-1.33-.01l-.03 3zm5.96.027l3.42.009.007-3-3.42-.009-.008 3zm7.416.016l4.61.007.005-3-4.61-.007-.005 3zm8.142.012l3.816.004.003-3-3.815-.004-.004 3zm7.91.008l4.37.004.003-3-4.37-.004-.002 3zm8.277.007l3.746.003.002-3-3.746-.003-.002 3zm7.651.005l4.059.003.002-3-4.06-.003-.001 3zm8.272.005l4.279.002.002-3-4.28-.002-.001 3zm8.002.004l3.824.001.001-3-3.824-.001-.001 3zm7.747.003l4.021.001.001-3-4.021-.001-.001 3zm8.139.003l4.214.001.001-3-4.214-.001-.001 3zm8.299.002l3.792.001.001-3-3.792-.001-.001 3zm7.653.002h3.928l.001-3h-3.929v3zm7.924.001l4.062.001v-3l-4.062-.001v3zm8.189.001l4.192.001.001-3-4.192-.001-.001 3zm8.175.001l3.836.001v-3l-3.836-.001v3zm7.721.001l3.934.001.001-3-3.935-.001v3zm7.917.001h4.03v-3h-4.03v3zm8.107 0h4.124v-3h-4.124v3zm8.293 0h3.904v-3h-3.904v3zm7.774 0h3.907v-3h-3.907v3zm7.85 0h3.979l-.001-3h-3.978v3zm7.993 0h4.049v-3h-4.049v3zm8.133 0l4.118-.001v-3l-4.118.001v3zm8.214-.001h3.872v-3h-3.872v3zm7.772 0l3.928-.001v-3l-3.928.001v3zm7.883-.001l3.983-.001v-3l-3.983.001v3zm7.992-.001h4.036v-3h-4.036v3zm8.098-.001h4.087v-3h-4.088l.001 3zm8.201-.001h3.942v-3h-3.943l.001 3zm7.849-.001h3.928l-.001-3h-3.928l.001 3zm7.877-.001l3.97-.001v-3l-3.971.001.001 3zm7.961-.001l4.011-.001v-3l-4.011.001v3zm8.043-.002h4.051v-3h-4.052l.001 3zm8.122-.001l4.09-.001v-3l-4.09.001v3zm8.06-.001l3.92-.001v-3l-3.921.001.001 3zm7.858-.002l3.954-.001v-3l-3.955.001.001 3zm7.924-.001l3.987-.001-.001-3-3.986.001v3zm7.988-.002l4.018-.001-.001-3-4.017.001v3zm8.05-.002l4.048-.001-.001-3-4.047.001v3zm8.11-.001l4.075-.001v-3l-4.075.001v3zm8.002-.002l3.941-.001-.001-3-3.94.001v3zm7.893-.002l3.966-.001-.001-3-3.965.001v3zm7.943-.002l3.99-.001-.001-3-3.989.001v3zm7.991-.002l4.014-.001-.001-3-4.013.001v3zm8.038-.002l4.036-.001-.001-3-4.036.001.001 3zm8.083-.002l4.058-.001-.001-3-4.058.001.001 3zm8.018-.002l3.951-.001-.001-3-3.951.001.001 3zm7.912-.002l3.97-.001-.001-3-3.97.001.001 3zm7.949-.002l3.989-.001-.001-3-3.989.001.001 3zm7.986-.002l4.005-.001v-3l-4.006.001.001 3zm8.019-.002l4.023-.002-.001-3-4.022.002v3zm8.053-.003l4.038-.001-.001-3-4.038.001.001 3zm8.055-.002l3.96-.001-.001-3-3.96.001.001 3zm7.927-.002l3.974-.001-.001-3-3.974.001.001 3zm7.954-.003l3.986-.001-.001-3-3.986.001.001 3zm7.979-.002l3.999-.001-.001-3-3.999.001.001 3zm8.003-.002l4.01-.002-.001-3-4.01.002.001 3zm8.026-.003l4.02-.001-.001-3-4.02.001.001 3zm8.046-.002l4.002-.002v-3l-4.003.002.001 3zm7.976-.003l3.979-.001-.001-3-3.978.001v3zm7.962-.002l3.986-.002-.001-3-3.986.002.001 3zm7.977-.003l3.994-.001-.001-3-3.994.001.001 3zm7.992-.003l4.002-.001-.001-3-4.002.001.001 3zm8.006-.002l4.008-.002-.001-3-4.008.002.001 3zm8.018-.003l4.013-.001-.001-3-4.013.001.001 3zm8.015-.003l3.987-.001-.001-3-3.987.002.001 2.999zm7.975-.002l3.991-.002-.001-3-3.991.002.001 3zm7.983-.003l3.994-.001-.001-3-3.994.001.001 3zm7.99-.003l3.997-.001-.001-3-3.997.001.001 3zm7.994-.002l3.999-.002-.001-3-3.999.002.001 3zm7.999-.003l4-.002-.001-3-4 .002.001 3zm8.001-.003l4-.001-.001-3-4 .001.001 3zm7.999-.003l3.999-.001-.001-3-3.999.001.001 3zm7.998-.003l3.998-.001-.001-3-3.998.001.001 3zm7.996-.002l3.997-.002-.001-3-3.997.002.001 3zm7.993-.003l3.995-.002-.001-3-3.995.002.001 3zm7.989-.003l3.992-.002-.001-3-3.992.002.001 3zm7.983-.003l3.989-.002-.001-3-3.989.002.001 3zm7.98-.003l4.012-.002-.001-3-4.012.002.001 3zm8.022-.003l4.008-.002-.001-3-4.008.002.001 3zm8.013-.003l4.002-.002-.001-3-4.002.002.001 3zm8.001-.003l3.996-.002-.001-3-3.996.002.001 3zm7.989-.003l3.989-.002-.001-3-3.989.002.001 3zm7.975-.003l3.981-.002-.001-3-3.982.002.002 3zm7.959-.003l3.978-.002-.002-3-3.977.002.001 3zm8.004-.003l4.022-.002-.002-3-4.021.002.001 3zm8.038-.003l4.012-.002-.001-3-4.012.002.001 3zm8.019-.004l4.001-.001-.001-3-4.002.002.002 2.999zm7.996-.003l3.99-.001-.001-3-3.99.001.001 3zm7.974-.003l3.978-.001-.001-3-3.978.001.001 3zm7.949-.003l3.965-.001-.001-3-3.965.001.001 3zm7.942-.003l4.04-.002-.002-3-4.04.002.002 3zm8.072-.003l4.025-.002-.001-3-4.025.002.001 3zm8.042-.003l4.01-.002-.002-3-4.009.002.001 3zm8.011-.004l3.993-.001-.001-3-3.993.001.001 3zm7.977-.003l3.976-.002-.001-3-3.976.002.001 3zm7.943-.003l3.958-.002-.001-3-3.958.002.001 3zm7.906-.003l4.014-.002-.001-3-4.014.002.001 3zm8.065-.004l4.04-.001-.001-3-4.04.001.001 3zm8.07-.003l4.019-.002-.001-3-4.019.002.001 3zm8.026-.003l3.997-.002-.001-3-3.997.002.001 3zm7.982-.004l3.973-.001-.002-3-3.973.001.002 3zm7.934-.003l3.949-.001-.002-3-3.948.001.001 3zm7.885-.003l3.988-.002-.001-3-3.988.002.001 3zm8.057-.003l4.054-.002-.001-3-4.054.002.001 3zm8.095-.004l4.026-.001-.002-3-4.025.001.001 3zm8.037-.003l3.996-.002-.002-3-3.996.002.002 3zm7.976-.004l3.965-.001-.001-3-3.965.001.001 3zm7.915-.003l3.933-.002-.001-3-3.933.002.001 3zm7.851-.003l4.032-.002-.001-3-4.033.002.002 3zm8.114-.004l4.063-.001-.002-3-4.062.001.001 3zm8.106-.003l4.025-.002-.002-3-4.024.002.001 3zm8.029-.004l3.985-.001-.001-3-3.985.001.001 3zm7.95-.003l3.945-.002-.002-3-3.944.002.001 3zm7.869-.003l3.902-.002-.001-3-3.903.002.002 3zm7.906-.004l4.104-.002-.001-3-4.104.002.001 3zm8.183-.003l4.054-.002-.001-3-4.054.002.001 3zm8.083-.004l4.003-.002v-3l-4.004.002.001 3zm7.983-.003l3.95-.002v-3l-3.95.002v3zm7.87-.004l3.9-.001v-3l-3.9.001v3zm7.77-.003l4.14-.002v-3l-4.14.002v3zm8.25-.004l4.08-.001v-3l-4.08.001v3zm8.12-.003l4.01-.002v-3l-4.01.002v3zm7.98-.004l3.95-.002-.01-3-3.94.002v3zm7.85-.003l3.87-.002v-3l-3.87.002v3zm7.8-.004l4.16-.001v-3l-4.16.001v3zm8.28-.003l4.07-.002v-3l-4.07.002v3zm8.1-.004l3.98-.002v-3l-3.98.002v3zm7.92-.003l3.89-.002v-3l-3.89.002v3zm7.73-.004l3.97-.001-.01-3-3.96.001v3zm8.16-.003l4.12-.002v-3l-4.13.002.01 3zm8.19-.004l4-.002v-3l-4 .002v3zm7.94-.003l3.88-.002-.01-3-3.87.002v3zm7.68-.004l4-.002v-3l-4 .002v3zm8.22-.003l4.14-.002v-3l-4.14.002v3zm8.18-.004l3.95-.002v-3l-3.95.002v3zm7.81-.003l3.76-.002v-3l-3.76.002v3zm7.84-.004l4.25-.002v-3l-4.25.002v3zm8.36-.003l3.97-.002v-3l-3.97.002v3zm7.79-.004l3.67-.001v-3l-3.67.001v3zm8-.003l4.22-.002v-3l-4.23.002.01 3zm8.19-.003l3.72-.002v-3l-3.72.002v3zm7.67-.003l4.4-.002v-3l-4.4.002v3zm8.24-.004l3.79-.001v-3l-3.79.001v3zm8.08-.002h1.38v-3h-1.38v3zm1.38 0c.67 0 1.32.007 1.97.021l.06-3c-.67-.014-1.35-.021-2.03-.021v3zm5.88.188c1.32.087 2.6.202 3.88.348l.34-2.98a82.423 82.423 0 0 0-4.03-.361l-.19 2.993zm7.74.891c1.3.218 2.56.466 3.81.751l.66-2.926a70.048 70.048 0 0 0-3.98-.784l-.49 2.959zm7.57 1.727c1.27.371 2.48.77 3.69 1.213l1.03-2.817c-1.26-.46-2.56-.89-3.87-1.275l-.85 2.879zm7.27 2.671c1.19.535 2.33 1.097 3.46 1.709l1.43-2.638a56.016 56.016 0 0 0-3.66-1.808l-1.23 2.737zm6.78 3.676c1.09.705 2.13 1.434 3.15 2.219l1.83-2.384a55.04 55.04 0 0 0-3.35-2.355l-1.63 2.52zm6.12 4.68c.96.864 1.87 1.747 2.77 2.69l2.17-2.066a55.47 55.47 0 0 0-2.93-2.855l-2.01 2.231zm5.31 5.587c.81.999 1.58 2.013 2.33 3.087l2.46-1.716a54.457 54.457 0 0 0-2.46-3.263l-2.33 1.892zm4.43 6.34a58.63 58.63 0 0 1 1.88 3.39l2.67-1.368a64.778 64.778 0 0 0-1.98-3.562l-2.57 1.54zm3.54 6.896c.51 1.178.99 2.367 1.46 3.606l2.81-1.046a79.339 79.339 0 0 0-1.52-3.763l-2.75 1.203zm2.72 7.294c.38 1.229.74 2.469 1.08 3.753l2.9-.761a86.769 86.769 0 0 0-1.12-3.891l-2.86.899zm1.98 7.557c.28 1.262.52 2.534.75 3.844l2.96-.514c-.23-1.34-.49-2.671-.77-3.963l-2.94.633zm1.35 7.718a94 94 0 0 1 .46 3.896l2.99-.301c-.14-1.35-.3-2.691-.48-3.999l-2.97.404zm.79 7.809c.09 1.293.17 2.594.22 3.924l3-.12c-.06-1.352-.13-2.697-.22-4.011l-3 .207zm.32 7.856c.01.659.01 1.317.01 1.985h3c0-.677 0-1.355-.01-2.023l-3 .038zm.01 1.985v2.021l3-.001v-2.02h-3zm.01 6.088v4.067l3-.001v-4.067l-3 .001zm0 8.135v4.063l3-.002v-4.063l-3 .002zm.01 8.126v4.065l3-.003v-4.065l-3 .003zm0 8.131c.01 1.355.01 2.711.01 4.065l3-.004c0-1.354 0-2.71-.01-4.065l-3 .004zm.02 8.129v4.064l3-.005v-4.063l-3 .004zm.01 8.131v4.067l3-.006v-4.066l-3 .005zm.01 8.133c0 1.365.01 2.72.01 4.065l3-.006c0-1.344-.01-2.7-.01-4.065l-3 .006zm.02 8.128v4.062l3-.006v-4.062l-3 .006zm.01 8.123c.01 1.374.01 2.728.01 4.061l3-.006c0-1.333 0-2.688-.01-4.062l-3 .007zm.02 8.124c0 1.384.01 2.74.01 4.066l3-.007c0-1.326-.01-2.682-.01-4.066l-3 .007zm.02 8.137c0 1.4.01 2.759.01 4.073l3-.007c0-1.314-.01-2.673-.01-4.074l-3 .008zm.02 8.145c0 1.42.01 2.773.01 4.054l3-.008c0-1.28-.01-2.634-.01-4.053l-3 .007zm.02 8.13c0 1.5.01 2.856.01 4.051l3-.008c0-1.195-.01-2.551-.01-4.051l-3 .008zm.02 8.133c0 .65.01 1.149.01 1.486v.511l1.5-.005 1.5-.004v-.511c0-.336-.01-.835-.01-1.486l-3 .009z"/><path id="b" fill-rule="evenodd" d="M10 20c5.523 0 10-4.477 10-10S15.523 0 10 0 0 4.477 0 10s4.477 10 10 10z"/><path id="d" d="M10 23c7.18 0 13-5.82 13-13h-6a7 7 0 0 1-7 7v6zm13-13c0-7.18-5.82-13-13-13v6a7 7 0 0 1 7 7h6zM10-3C2.82-3-3 2.82-3 10h6a7 7 0 0 1 7-7v-6zM-3 10c0 7.18 5.82 13 13 13v-6a7 7 0 0 1-7-7h-6z"/><path id="e" d="M1.207 6.723l.434-4.254h4.37V3.47h-3.45l-.258 2.326c.418-.246.892-.37 1.424-.37.777 0 1.394.259 1.851.774.457.512.686 1.205.686 2.08 0 .88-.239 1.573-.715 2.08-.473.504-1.135.756-1.987.756-.753 0-1.369-.209-1.845-.627-.477-.418-.748-.996-.815-1.734h1.026c.066.488.24.857.521 1.107.281.246.653.37 1.114.37.503 0 .898-.173 1.183-.516.29-.344.434-.819.434-1.424 0-.57-.157-1.027-.47-1.371-.308-.348-.72-.522-1.235-.522-.473 0-.844.104-1.114.31l-.287.235-.867-.222z"/><path id="h" d="M5.285 8.135H6.47v.885H5.285V11h-1.09V9.02H.311v-.64L4.13 2.47h1.154v5.666zm-3.744 0h2.654V3.95l-.129.235-2.525 3.949z"/><path id="i" d="M2.285 6.207H3.1c.511-.008.914-.143 1.207-.404.293-.262.44-.615.44-1.06 0-1-.499-1.5-1.495-1.5-.469 0-.844.134-1.125.403-.277.266-.416.62-.416 1.061H.627c0-.676.246-1.236.738-1.682.496-.449 1.125-.673 1.887-.673.805 0 1.436.212 1.893.638.457.426.685 1.018.685 1.776 0 .37-.121.73-.363 1.078a2.157 2.157 0 0 1-.979.779c.469.148.83.395 1.084.738.258.344.387.764.387 1.26 0 .766-.25 1.373-.75 1.822-.5.45-1.15.674-1.951.674-.801 0-1.453-.217-1.957-.65C.8 10.033.55 9.46.55 8.75h1.09c0 .45.146.809.44 1.078.292.27.685.404 1.177.404.523 0 .924-.136 1.201-.41.277-.273.416-.666.416-1.177 0-.497-.152-.877-.457-1.143-.305-.266-.744-.402-1.318-.41h-.815v-.885z"/><path id="k" d="M6.299 11H.709v-.78l2.953-3.28c.438-.497.738-.899.902-1.208.168-.312.252-.634.252-.966 0-.446-.134-.81-.404-1.096-.27-.285-.629-.428-1.078-.428-.54 0-.959.154-1.26.463-.297.305-.445.73-.445 1.277H.545c0-.785.252-1.42.756-1.904.508-.484 1.185-.726 2.033-.726.793 0 1.42.209 1.88.627.462.414.692.966.692 1.658 0 .84-.535 1.84-1.605 3l-2.285 2.478h4.283V11z"/><path id="m" d="M4.271 11h-1.09V3.775l-2.185.803v-.984l3.106-1.166h.17V11z"/></defs></svg>