<svg width="1920" height="250" viewBox="0 0 1920 250" xmlns="http://www.w3.org/2000/svg" xmlns:xlink="http://www.w3.org/1999/xlink"><title>Иллюстрация</title><desc>Created using Figma</desc><g transform="translate(15635 4408)"><mask id="b"><use xlink:href="#a" transform="translate(-15635 -4408)" fill="#FFF"/></mask><g mask="url(#b)"><use xlink:href="#a" transform="translate(-15635 -4408)" fill="#0C97CC"/></g><g mask="url(#b)"><use xlink:href="#c" transform="translate(-14986 -4292)" fill="url(#d)"/></g></g><use xlink:href="#e" transform="translate(1033 220)" fill="#FFF" opacity=".8"/><use xlink:href="#e" transform="translate(1023 20)" fill="#FF8306"/><use xlink:href="#f" transform="translate(1063 100)" fill="#FFF" opacity=".8"/><use xlink:href="#g" transform="translate(823 90)" fill="#F6F9FA" opacity=".8"/><use xlink:href="#e" transform="translate(842 130)" fill="#FF8306"/><use xlink:href="#h" transform="translate(1095 186.03)" fill="#FF8306"/><use xlink:href="#i" transform="translate(1065 58.03)" fill="#FF8306"/><use xlink:href="#j" transform="translate(1075 156.03)" fill="#F6F9FA" fill-opacity=".7"/><use xlink:href="#h" transform="translate(1315 136.03)" fill="#FF8306"/><use xlink:href="#k" transform="translate(1295 91)" fill="#FF8306"/><use xlink:href="#j" transform="translate(1315 156.03)" fill="#F6F9FA" fill-opacity=".7"/><use xlink:href="#l" transform="rotate(-15 647.652 -3177.633)" fill="#FF8306"/><use xlink:href="#m" transform="translate(947.6 77.5)" fill="#FB992D"/><use xlink:href="#n" transform="translate(877.4 77.5)" fill="#FFB739"/><use xlink:href="#o" transform="translate(877.4 30)" fill="#FB992D"/><use xlink:href="#p" transform="translate(931.1 60.9)" fill="#F67A21"/><use xlink:href="#q" transform="translate(906.3 94.1)" fill="#FFEAC3"/><use xlink:href="#r" transform="translate(906.3 46.6)" fill="#FFD488"/><defs><linearGradient id="d" x2="1" gradientUnits="userSpaceOnUse" gradientTransform="rotate(90 172.557 138.943) scale(236.953)"><stop offset="0" stop-color="#0BAFF0"/><stop offset="1" stop-color="#0C97CC"/></linearGradient><path id="a" fill-rule="evenodd" d="M0 0h1920v250H0V0z"/><path id="c" fill-rule="evenodd" d="M311.5 623C483.537 623 623 483.537 623 311.5S483.537 0 311.5 0 0 139.463 0 311.5 139.463 623 311.5 623z"/><path id="e" d="M3 7a4 4 0 0 0 4-4H5a2 2 0 0 1-2 2v2zm4-4a4 4 0 0 0-4-4v2a2 2 0 0 1 2 2h2zM3-1a4 4 0 0 0-4 4h2a2 2 0 0 1 2-2v-2zm-4 4a4 4 0 0 0 4 4V5a2 2 0 0 1-2-2h-2z"/><path id="f" d="M1.5 3.5a2 2 0 0 0 2-2h-1a1 1 0 0 1-1 1v1zm2-2a2 2 0 0 0-2-2v1a1 1 0 0 1 1 1h1zm-2-2a2 2 0 0 0-2 2h1a1 1 0 0 1 1-1v-1zm-2 2a2 2 0 0 0 2 2v-1a1 1 0 0 1-1-1h-1z"/><path id="g" d="M2 5a3 3 0 0 0 3-3H3a1 1 0 0 1-1 1v2zm3-3a3 3 0 0 0-3-3v2a1 1 0 0 1 1 1h2zM2-1a3 3 0 0 0-3 3h2a1 1 0 0 1 1-1v-2zm-3 3a3 3 0 0 0 3 3V3a1 1 0 0 1-1-1h-2z"/><path id="h" fill-rule="evenodd" d="M2.615 2.624C2.63 1.17 2.787 0 4.004 0 5.216 0 5.346 1.154 5.35 2.603c1.448-.013 2.623.121 2.623 1.366 0 1.238-1.17 1.4-2.603 1.402.012 1.438-.128 2.602-1.366 2.602-1.24 0-1.4-1.176-1.402-2.615C1.158 5.343 0 5.179 0 3.969c0-1.215 1.16-1.343 2.615-1.345z"/><path id="i" fill-rule="evenodd" d="M4.925 4.939C4.929 2.236 5.104 0 7.01 0c1.903 0 2.03 2.21 2.02 4.911 2.692-.038 4.939.096 4.939 2.048 0 1.944-2.242 2.12-4.911 2.104.036 2.678-.104 4.907-2.048 4.907-1.948 0-2.12-2.25-2.104-4.925C2.22 9.04 0 8.858 0 6.959c0-1.906 2.218-2.03 4.925-2.02z"/><path id="j" fill-rule="evenodd" d="M1.304 1.308C1.31.583 1.39 0 1.996 0c.605 0 .671.575.671 1.298.723-.007 1.309.06 1.309.681 0 .617-.582.698-1.298.7.006.716-.064 1.296-.682 1.296-.618 0-.698-.586-.698-1.304C.578 2.664 0 2.583 0 1.98c0-.606.578-.67 1.304-.67z"/><path id="k" d="M6 13.5A7.5 7.5 0 0 0 13.5 6h-3A4.5 4.5 0 0 1 6 10.5v3zM13.5 6A7.5 7.5 0 0 0 6-1.5v3A4.5 4.5 0 0 1 10.5 6h3zM6-1.5A7.5 7.5 0 0 0-1.5 6h3A4.5 4.5 0 0 1 6 1.5v-3zM-1.5 6A7.5 7.5 0 0 0 6 13.5v-3A4.5 4.5 0 0 1 1.5 6h-3z"/><path id="l" d="M22.531 9.5h1.5-1.5zm0-8h-1.5 1.5zm0 9h1.5-1.5zm.5.5v1.5V11zm.5-.5h1.5-1.5zm0-1h-1.5 1.5zm0-8h-1.5 1.5zm0-1h1.5V.496l-1.5.004zm-.5-.5v1.5V0zm-.5.5h1.5V.496l-1.5.004zm-7.933 10.714l1.3-.75-1.3.75zm-4-6.928l-1.3.75 1.3-.75zm4.5 7.794l-1.299.75 1.3-.75zm.683.183l-.75-1.299.75 1.3zm.183-.683l1.3-.75-1.3.75zm-.5-.866l1.3-.75-1.3.75zm-4-6.928l-1.3.75 1.3-.75zm-.5-.866l1.299-.75-1.3.75zm-.866.5l-1.299.75 1.299-.75zM1.195 14.263l.634-1.36-.634 1.36zm7.25 3.38l-.634 1.36.634-1.36zM.288 13.84l-.635 1.36h.002l.633-1.36zm.423-.906l-.635 1.359h.001l.634-1.36zm.906.422l-.634 1.36.634-1.36zm7.251 3.381l.634-1.36-.634 1.36zm.906.423l.634-1.36-.634 1.36zm-.422.906l.635-1.359h-.001l-.634 1.36zM24.031 9.5v-8h-3v8h3zm0 1v-1h-3v1h3zm-1-1a1 1 0 0 1 1 1h-3a2 2 0 0 0 2 2v-3zm-1 .999a1 1 0 0 1 1-.999v3a2 2 0 0 0 2-2l-3-.001zm0-1v1h3v-1h-3zm0-7.999v8h3v-8h-3zm0-1v1h3v-1h-3zm1 1a1 1 0 0 1-1-.996l3-.008a2 2 0 0 0-2-1.996v3zm1-1.004a1.001 1.001 0 0 1-1 1.004l.001-3a1.999 1.999 0 0 0-2 2.004l3-.008zm0 1.004v-1h-3v1h3zm-8.134 8.964l-4-6.928-2.598 1.5 4 6.928 2.598-1.5zm.5.866l-.5-.866-2.598 1.5.5.866 2.598-1.5zm-1.366-.366a1 1 0 0 1 1.366.366l-2.598 1.5a2 2 0 0 0 2.732.732l-1.5-2.598zm-.366 1.366a1 1 0 0 1 .366-1.366l1.5 2.598a2 2 0 0 0 .732-2.732l-2.598 1.5zm-.5-.866l.5.866 2.598-1.5-.5-.866-2.598 1.5zm-4-6.928l4 6.928 2.598-1.5-4-6.928-2.598 1.5zm-.5-.866l.5.866 2.598-1.5-.5-.866-2.598 1.5zm1.366.366a1 1 0 0 1-1.366-.366l2.598-1.5a2 2 0 0 0-2.732-.732l1.5 2.598zm.366-1.366a1 1 0 0 1-.366 1.366l-1.5-2.598a2 2 0 0 0-.732 2.732l2.598-1.5zm.5.866l-.5-.866-2.598 1.5.5.866 2.598-1.5zM.561 15.622l7.25 3.381 1.268-2.719-7.25-3.38-1.268 2.718zm-.906-.422l.907.423 1.267-2.72-.907-.422L-.345 15.2zm-.968-2.658A2 2 0 0 0-.347 15.2l1.27-2.718a1 1 0 0 1 .484 1.328l-2.72-1.267zm2.66-.967a2 2 0 0 0-2.66.967l2.72 1.267a1 1 0 0 1-1.33.484l1.27-2.718zm.904.422l-.906-.423-1.268 2.72.906.422 1.268-2.72zm7.251 3.38l-7.251-3.38-1.268 2.719 7.251 3.38 1.268-2.718zm.906.423l-.906-.422-1.268 2.719.906.422 1.268-2.719zm.968 2.658a2 2 0 0 0-.968-2.657L9.14 18.518a1 1 0 0 1-.483-1.328l2.72 1.267zm-2.659.967a2 2 0 0 0 2.66-.967l-2.72-1.267a1 1 0 0 1 1.33-.484l-1.27 2.718zm-.905-.422l.906.423 1.268-2.72-.907-.422-1.267 2.72z"/><path id="m" d="M0 39.24L12.388 142.5 94.975 95V0L0 39.24z"/><path id="n" d="M82.587 35.109V142.5L0 95V0l82.587 35.109z"/><path id="o" d="M0 47.5l28.87 16.604 54.698-16.075L111.455 16.6 82.587 0 0 47.5z"/><path id="p" d="M0 47.502l28.865 16.603 82.587-47.5L82.588 0 27.485 16.307 0 47.502z"/><path id="q" d="M24.852 55.597L0 41.304V0l23.955 1.871.897 12.422v41.304z"/><path id="r" d="M0 47.502L82.585 0l24.855 14.293-82.588 47.503L0 47.502z"/></defs></svg>